# xmcd
#
# Track frame offsets:
#	150
#	19469
#	34278
#	47721
#	62400
#	77122
#	89978
#	105011
#	119238
#	132932
#	147913
#	161344
#	177575
#	190572
#	210264
#
# Disc length: 3023 seconds
#
# Revision: 1
# Processed by: cddbd v1.5.2PL0 Copyright (c) Steve Scherf et al.
# Submitted via: audiograbber 1.83.01
#
DISCID=d00bcd0f
DTITLE=Ludwig Sebus - Das Beste
DYEAR=2010
DGENRE=Kölsch
TTITLE0=D'r drügge Pitter
TTITLE1=Ne miese Lade
TTITLE2=Romanisch kölsche Kirche stonn
TTITLE3=Un wann d'r decke Pitter lügg
TTITLE4=Och Verwandte, dat sin Minsche
TTITLE5=Dä ahle Kuschteiebaum
TTITLE6=Wat e paar Bein
TTITLE7=Uns kölsche Siel
TTITLE8=M'r kann nit alles krigge
TTITLE9=Kölsche en d'r Südsee
TTITLE10=Et Rhein-Panorama
TTITLE11=Circus Colonia
TTITLE12=Am Ostermann-Brunne
TTITLE13=Bei D'r Schwarze Madonna
TTITLE14=Heimweh nach Köln
EXTD=
EXTT0=
EXTT1=
EXTT2=
EXTT3=
EXTT4=
EXTT5=
EXTT6=
EXTT7=
EXTT8=
EXTT9=
EXTT10=
EXTT11=
EXTT12=
EXTT13=
EXTT14=
PLAYORDER=
